<mxfile host="65bd71144e">
    <diagram id="WwXtD_9NY8bpJ0JRKzjA" name="Page-1">
        <mxGraphModel dx="486" dy="614" grid="1" gridSize="10" guides="1" tooltips="1" connect="1" arrows="1" fold="1" page="1" pageScale="1" pageWidth="1654" pageHeight="2336" math="1" shadow="0">
            <root>
                <mxCell id="0"/>
                <mxCell id="1" parent="0"/>
                <mxCell id="L8WJo_xax8rDuvlctxfB-1" value="Input" style="ellipse;whiteSpace=wrap;html=1;" parent="1" vertex="1">
                    <mxGeometry x="70" y="130" width="90" height="50" as="geometry"/>
                </mxCell>
                <mxCell id="L8WJo_xax8rDuvlctxfB-2" value="" style="endArrow=classic;html=1;rounded=0;exitX=1;exitY=0.5;exitDx=0;exitDy=0;" parent="1" source="L8WJo_xax8rDuvlctxfB-1" target="L8WJo_xax8rDuvlctxfB-3" edge="1">
                    <mxGeometry width="50" height="50" relative="1" as="geometry">
                        <mxPoint x="190" y="170" as="sourcePoint"/>
                        <mxPoint x="260" y="155" as="targetPoint"/>
                    </mxGeometry>
                </mxCell>
                <mxCell id="L8WJo_xax8rDuvlctxfB-3" value="Gán x0,y0,h,X&lt;br&gt;Khởi tạo hàm F" style="shape=parallelogram;perimeter=parallelogramPerimeter;whiteSpace=wrap;html=1;fixedSize=1;" parent="1" vertex="1">
                    <mxGeometry x="210" y="125" width="180" height="60" as="geometry"/>
                </mxCell>
                <mxCell id="L8WJo_xax8rDuvlctxfB-4" value="" style="endArrow=classic;html=1;rounded=0;exitX=0.444;exitY=0.917;exitDx=0;exitDy=0;exitPerimeter=0;" parent="1" source="L8WJo_xax8rDuvlctxfB-3" edge="1">
                    <mxGeometry width="50" height="50" relative="1" as="geometry">
                        <mxPoint x="290" y="190" as="sourcePoint"/>
                        <mxPoint x="290" y="240" as="targetPoint"/>
                        <Array as="points"/>
                    </mxGeometry>
                </mxCell>
                <mxCell id="L8WJo_xax8rDuvlctxfB-5" value="Tính n = (X-x0)/h" style="rounded=0;whiteSpace=wrap;html=1;" parent="1" vertex="1">
                    <mxGeometry x="220" y="240" width="140" height="60" as="geometry"/>
                </mxCell>
                <mxCell id="L8WJo_xax8rDuvlctxfB-6" value="" style="endArrow=classic;html=1;rounded=0;exitX=0.5;exitY=1;exitDx=0;exitDy=0;" parent="1" source="L8WJo_xax8rDuvlctxfB-5" edge="1">
                    <mxGeometry width="50" height="50" relative="1" as="geometry">
                        <mxPoint x="260" y="370" as="sourcePoint"/>
                        <mxPoint x="290" y="350" as="targetPoint"/>
                    </mxGeometry>
                </mxCell>
                <mxCell id="L8WJo_xax8rDuvlctxfB-7" value="Gán x = x0&lt;br&gt;y=y0, i = 0" style="rounded=0;whiteSpace=wrap;html=1;" parent="1" vertex="1">
                    <mxGeometry x="230" y="350" width="120" height="60" as="geometry"/>
                </mxCell>
                <mxCell id="L8WJo_xax8rDuvlctxfB-8" value="" style="endArrow=classic;html=1;rounded=0;exitX=0.5;exitY=1;exitDx=0;exitDy=0;" parent="1" source="L8WJo_xax8rDuvlctxfB-7" edge="1">
                    <mxGeometry width="50" height="50" relative="1" as="geometry">
                        <mxPoint x="290" y="450" as="sourcePoint"/>
                        <mxPoint x="290" y="450" as="targetPoint"/>
                    </mxGeometry>
                </mxCell>
                <mxCell id="L8WJo_xax8rDuvlctxfB-9" value="i&amp;lt;n+1" style="rhombus;whiteSpace=wrap;html=1;" parent="1" vertex="1">
                    <mxGeometry x="250" y="450" width="80" height="80" as="geometry"/>
                </mxCell>
                <mxCell id="L8WJo_xax8rDuvlctxfB-10" value="" style="endArrow=classic;html=1;rounded=0;exitX=0.5;exitY=1;exitDx=0;exitDy=0;" parent="1" source="L8WJo_xax8rDuvlctxfB-9" edge="1">
                    <mxGeometry width="50" height="50" relative="1" as="geometry">
                        <mxPoint x="290" y="570" as="sourcePoint"/>
                        <mxPoint x="290" y="590" as="targetPoint"/>
                    </mxGeometry>
                </mxCell>
                <mxCell id="L8WJo_xax8rDuvlctxfB-11" value="Đ" style="text;html=1;strokeColor=none;fillColor=none;align=center;verticalAlign=middle;whiteSpace=wrap;rounded=0;" parent="1" vertex="1">
                    <mxGeometry x="280" y="540" width="60" height="30" as="geometry"/>
                </mxCell>
                <mxCell id="L8WJo_xax8rDuvlctxfB-13" value="a1[i]= x0+i*h&lt;br&gt;a[i] = y&lt;br&gt;y = y + h*F(x,y)&lt;br&gt;x = x+ h" style="rounded=0;whiteSpace=wrap;html=1;" parent="1" vertex="1">
                    <mxGeometry x="210" y="580" width="170" height="90" as="geometry"/>
                </mxCell>
                <mxCell id="L8WJo_xax8rDuvlctxfB-15" value="" style="endArrow=classic;html=1;rounded=0;exitX=1;exitY=0.5;exitDx=0;exitDy=0;" parent="1" source="L8WJo_xax8rDuvlctxfB-9" edge="1">
                    <mxGeometry width="50" height="50" relative="1" as="geometry">
                        <mxPoint x="340" y="490" as="sourcePoint"/>
                        <mxPoint x="410" y="490" as="targetPoint"/>
                        <Array as="points"/>
                    </mxGeometry>
                </mxCell>
                <mxCell id="L8WJo_xax8rDuvlctxfB-16" value="S" style="text;html=1;strokeColor=none;fillColor=none;align=center;verticalAlign=middle;whiteSpace=wrap;rounded=0;" parent="1" vertex="1">
                    <mxGeometry x="330" y="460" width="60" height="30" as="geometry"/>
                </mxCell>
                <mxCell id="L8WJo_xax8rDuvlctxfB-17" value="Return a1, a" style="ellipse;whiteSpace=wrap;html=1;" parent="1" vertex="1">
                    <mxGeometry x="410" y="450" width="120" height="80" as="geometry"/>
                </mxCell>
                <mxCell id="L8WJo_xax8rDuvlctxfB-18" value="Euler hiện&amp;nbsp;" style="text;html=1;strokeColor=none;fillColor=none;align=center;verticalAlign=middle;whiteSpace=wrap;rounded=0;" parent="1" vertex="1">
                    <mxGeometry x="85" y="50" width="195" height="30" as="geometry"/>
                </mxCell>
                <mxCell id="L8WJo_xax8rDuvlctxfB-19" value="Input" style="ellipse;whiteSpace=wrap;html=1;" parent="1" vertex="1">
                    <mxGeometry x="720" y="180" width="90" height="50" as="geometry"/>
                </mxCell>
                <mxCell id="L8WJo_xax8rDuvlctxfB-20" value="" style="endArrow=classic;html=1;rounded=0;exitX=1;exitY=0.5;exitDx=0;exitDy=0;" parent="1" source="L8WJo_xax8rDuvlctxfB-19" target="L8WJo_xax8rDuvlctxfB-21" edge="1">
                    <mxGeometry width="50" height="50" relative="1" as="geometry">
                        <mxPoint x="840" y="220" as="sourcePoint"/>
                        <mxPoint x="910" y="205" as="targetPoint"/>
                    </mxGeometry>
                </mxCell>
                <mxCell id="L8WJo_xax8rDuvlctxfB-21" value="Gán x0,y0,h,X&lt;br&gt;Khởi tạo hàm F" style="shape=parallelogram;perimeter=parallelogramPerimeter;whiteSpace=wrap;html=1;fixedSize=1;" parent="1" vertex="1">
                    <mxGeometry x="860" y="175" width="180" height="60" as="geometry"/>
                </mxCell>
                <mxCell id="L8WJo_xax8rDuvlctxfB-22" value="" style="endArrow=classic;html=1;rounded=0;exitX=0.444;exitY=0.917;exitDx=0;exitDy=0;exitPerimeter=0;" parent="1" source="L8WJo_xax8rDuvlctxfB-21" edge="1">
                    <mxGeometry width="50" height="50" relative="1" as="geometry">
                        <mxPoint x="940" y="240" as="sourcePoint"/>
                        <mxPoint x="940" y="290" as="targetPoint"/>
                        <Array as="points"/>
                    </mxGeometry>
                </mxCell>
                <mxCell id="L8WJo_xax8rDuvlctxfB-23" value="Tính n = (X-x0)/h" style="rounded=0;whiteSpace=wrap;html=1;" parent="1" vertex="1">
                    <mxGeometry x="870" y="290" width="140" height="60" as="geometry"/>
                </mxCell>
                <mxCell id="L8WJo_xax8rDuvlctxfB-24" value="" style="endArrow=classic;html=1;rounded=0;exitX=0.5;exitY=1;exitDx=0;exitDy=0;" parent="1" source="L8WJo_xax8rDuvlctxfB-23" edge="1">
                    <mxGeometry width="50" height="50" relative="1" as="geometry">
                        <mxPoint x="910" y="420" as="sourcePoint"/>
                        <mxPoint x="940" y="400" as="targetPoint"/>
                    </mxGeometry>
                </mxCell>
                <mxCell id="L8WJo_xax8rDuvlctxfB-25" value="Gán x = x0&lt;br&gt;y=y0, i = 0" style="rounded=0;whiteSpace=wrap;html=1;" parent="1" vertex="1">
                    <mxGeometry x="880" y="400" width="120" height="60" as="geometry"/>
                </mxCell>
                <mxCell id="L8WJo_xax8rDuvlctxfB-26" value="" style="endArrow=classic;html=1;rounded=0;exitX=0.5;exitY=1;exitDx=0;exitDy=0;" parent="1" source="L8WJo_xax8rDuvlctxfB-25" edge="1">
                    <mxGeometry width="50" height="50" relative="1" as="geometry">
                        <mxPoint x="940" y="500" as="sourcePoint"/>
                        <mxPoint x="940" y="500" as="targetPoint"/>
                    </mxGeometry>
                </mxCell>
                <mxCell id="L8WJo_xax8rDuvlctxfB-27" value="i&amp;lt;n+1" style="rhombus;whiteSpace=wrap;html=1;" parent="1" vertex="1">
                    <mxGeometry x="900" y="500" width="80" height="80" as="geometry"/>
                </mxCell>
                <mxCell id="L8WJo_xax8rDuvlctxfB-28" value="" style="endArrow=classic;html=1;rounded=0;exitX=0.5;exitY=1;exitDx=0;exitDy=0;" parent="1" source="L8WJo_xax8rDuvlctxfB-27" edge="1">
                    <mxGeometry width="50" height="50" relative="1" as="geometry">
                        <mxPoint x="940" y="620" as="sourcePoint"/>
                        <mxPoint x="940" y="640" as="targetPoint"/>
                    </mxGeometry>
                </mxCell>
                <mxCell id="L8WJo_xax8rDuvlctxfB-29" value="Đ" style="text;html=1;strokeColor=none;fillColor=none;align=center;verticalAlign=middle;whiteSpace=wrap;rounded=0;" parent="1" vertex="1">
                    <mxGeometry x="930" y="590" width="60" height="30" as="geometry"/>
                </mxCell>
                <mxCell id="L8WJo_xax8rDuvlctxfB-30" value="a1[i]= x0+i*h&lt;br&gt;a[i] = y&lt;br&gt;I = h*F(x+h,y+h*F(x,y))&lt;br&gt;x= x + h&lt;br&gt;y= y + I" style="rounded=0;whiteSpace=wrap;html=1;" parent="1" vertex="1">
                    <mxGeometry x="850" y="640" width="180" height="130" as="geometry"/>
                </mxCell>
                <mxCell id="L8WJo_xax8rDuvlctxfB-31" value="" style="endArrow=classic;html=1;rounded=0;exitX=1;exitY=0.5;exitDx=0;exitDy=0;" parent="1" source="L8WJo_xax8rDuvlctxfB-27" edge="1">
                    <mxGeometry width="50" height="50" relative="1" as="geometry">
                        <mxPoint x="990" y="540" as="sourcePoint"/>
                        <mxPoint x="1060" y="540" as="targetPoint"/>
                        <Array as="points"/>
                    </mxGeometry>
                </mxCell>
                <mxCell id="L8WJo_xax8rDuvlctxfB-32" value="S" style="text;html=1;strokeColor=none;fillColor=none;align=center;verticalAlign=middle;whiteSpace=wrap;rounded=0;" parent="1" vertex="1">
                    <mxGeometry x="980" y="510" width="60" height="30" as="geometry"/>
                </mxCell>
                <mxCell id="L8WJo_xax8rDuvlctxfB-33" value="Return a1, a" style="ellipse;whiteSpace=wrap;html=1;" parent="1" vertex="1">
                    <mxGeometry x="1060" y="500" width="120" height="80" as="geometry"/>
                </mxCell>
                <mxCell id="L8WJo_xax8rDuvlctxfB-34" value="Euler ẩn&amp;nbsp;" style="text;html=1;strokeColor=none;fillColor=none;align=center;verticalAlign=middle;whiteSpace=wrap;rounded=0;" parent="1" vertex="1">
                    <mxGeometry x="735" y="100" width="195" height="30" as="geometry"/>
                </mxCell>
                <mxCell id="L8WJo_xax8rDuvlctxfB-35" value="Input" style="ellipse;whiteSpace=wrap;html=1;" parent="1" vertex="1">
                    <mxGeometry x="140" y="890" width="90" height="50" as="geometry"/>
                </mxCell>
                <mxCell id="L8WJo_xax8rDuvlctxfB-36" value="" style="endArrow=classic;html=1;rounded=0;exitX=1;exitY=0.5;exitDx=0;exitDy=0;" parent="1" source="L8WJo_xax8rDuvlctxfB-35" target="L8WJo_xax8rDuvlctxfB-37" edge="1">
                    <mxGeometry width="50" height="50" relative="1" as="geometry">
                        <mxPoint x="260" y="930" as="sourcePoint"/>
                        <mxPoint x="330" y="915" as="targetPoint"/>
                    </mxGeometry>
                </mxCell>
                <mxCell id="L8WJo_xax8rDuvlctxfB-37" value="Gán x0,y0,h,X&lt;br&gt;Khởi tạo hàm F" style="shape=parallelogram;perimeter=parallelogramPerimeter;whiteSpace=wrap;html=1;fixedSize=1;" parent="1" vertex="1">
                    <mxGeometry x="280" y="885" width="180" height="60" as="geometry"/>
                </mxCell>
                <mxCell id="L8WJo_xax8rDuvlctxfB-38" value="" style="endArrow=classic;html=1;rounded=0;exitX=0.444;exitY=0.917;exitDx=0;exitDy=0;exitPerimeter=0;" parent="1" source="L8WJo_xax8rDuvlctxfB-37" edge="1">
                    <mxGeometry width="50" height="50" relative="1" as="geometry">
                        <mxPoint x="360" y="950" as="sourcePoint"/>
                        <mxPoint x="360" y="1000" as="targetPoint"/>
                        <Array as="points"/>
                    </mxGeometry>
                </mxCell>
                <mxCell id="L8WJo_xax8rDuvlctxfB-39" value="Tính n = (X-x0)/h" style="rounded=0;whiteSpace=wrap;html=1;" parent="1" vertex="1">
                    <mxGeometry x="290" y="1000" width="140" height="60" as="geometry"/>
                </mxCell>
                <mxCell id="L8WJo_xax8rDuvlctxfB-40" value="" style="endArrow=classic;html=1;rounded=0;exitX=0.5;exitY=1;exitDx=0;exitDy=0;" parent="1" source="L8WJo_xax8rDuvlctxfB-39" edge="1">
                    <mxGeometry width="50" height="50" relative="1" as="geometry">
                        <mxPoint x="330" y="1130" as="sourcePoint"/>
                        <mxPoint x="360" y="1110" as="targetPoint"/>
                    </mxGeometry>
                </mxCell>
                <mxCell id="L8WJo_xax8rDuvlctxfB-41" value="Gán x = x0&lt;br&gt;y=y0, i = 0" style="rounded=0;whiteSpace=wrap;html=1;" parent="1" vertex="1">
                    <mxGeometry x="300" y="1110" width="120" height="60" as="geometry"/>
                </mxCell>
                <mxCell id="L8WJo_xax8rDuvlctxfB-42" value="" style="endArrow=classic;html=1;rounded=0;exitX=0.5;exitY=1;exitDx=0;exitDy=0;" parent="1" source="L8WJo_xax8rDuvlctxfB-41" edge="1">
                    <mxGeometry width="50" height="50" relative="1" as="geometry">
                        <mxPoint x="360" y="1210" as="sourcePoint"/>
                        <mxPoint x="360" y="1210" as="targetPoint"/>
                    </mxGeometry>
                </mxCell>
                <mxCell id="L8WJo_xax8rDuvlctxfB-43" value="i&amp;lt;n+1" style="rhombus;whiteSpace=wrap;html=1;" parent="1" vertex="1">
                    <mxGeometry x="320" y="1210" width="80" height="80" as="geometry"/>
                </mxCell>
                <mxCell id="L8WJo_xax8rDuvlctxfB-44" value="" style="endArrow=classic;html=1;rounded=0;exitX=0.5;exitY=1;exitDx=0;exitDy=0;" parent="1" source="L8WJo_xax8rDuvlctxfB-43" edge="1">
                    <mxGeometry width="50" height="50" relative="1" as="geometry">
                        <mxPoint x="360" y="1330" as="sourcePoint"/>
                        <mxPoint x="360" y="1350" as="targetPoint"/>
                    </mxGeometry>
                </mxCell>
                <mxCell id="L8WJo_xax8rDuvlctxfB-45" value="Đ" style="text;html=1;strokeColor=none;fillColor=none;align=center;verticalAlign=middle;whiteSpace=wrap;rounded=0;" parent="1" vertex="1">
                    <mxGeometry x="350" y="1300" width="60" height="30" as="geometry"/>
                </mxCell>
                <mxCell id="L8WJo_xax8rDuvlctxfB-46" value="a1[i]= x0+i*h&lt;br&gt;a[i] = y&lt;br&gt;I = (h/2)*(F(x,y) + F(x+h, y+ h*F(x,y)))&lt;br&gt;x= x+ h&lt;br&gt;y = y + I" style="rounded=0;whiteSpace=wrap;html=1;" parent="1" vertex="1">
                    <mxGeometry x="220" y="1350" width="300" height="130" as="geometry"/>
                </mxCell>
                <mxCell id="L8WJo_xax8rDuvlctxfB-47" value="" style="endArrow=classic;html=1;rounded=0;exitX=1;exitY=0.5;exitDx=0;exitDy=0;" parent="1" source="L8WJo_xax8rDuvlctxfB-43" edge="1">
                    <mxGeometry width="50" height="50" relative="1" as="geometry">
                        <mxPoint x="410" y="1250" as="sourcePoint"/>
                        <mxPoint x="480" y="1250" as="targetPoint"/>
                        <Array as="points"/>
                    </mxGeometry>
                </mxCell>
                <mxCell id="L8WJo_xax8rDuvlctxfB-48" value="S" style="text;html=1;strokeColor=none;fillColor=none;align=center;verticalAlign=middle;whiteSpace=wrap;rounded=0;" parent="1" vertex="1">
                    <mxGeometry x="400" y="1220" width="60" height="30" as="geometry"/>
                </mxCell>
                <mxCell id="L8WJo_xax8rDuvlctxfB-49" value="Return a1, a" style="ellipse;whiteSpace=wrap;html=1;" parent="1" vertex="1">
                    <mxGeometry x="480" y="1210" width="120" height="80" as="geometry"/>
                </mxCell>
                <mxCell id="L8WJo_xax8rDuvlctxfB-50" value="Hình thang" style="text;html=1;strokeColor=none;fillColor=none;align=center;verticalAlign=middle;whiteSpace=wrap;rounded=0;" parent="1" vertex="1">
                    <mxGeometry x="155" y="810" width="195" height="30" as="geometry"/>
                </mxCell>
                <mxCell id="lxoMp8u9pRbJdC7NHY2p-1" value="$$y_{i+1} = y_i + h*F(x_i, y_i)$$" style="text;html=1;strokeColor=none;fillColor=none;align=center;verticalAlign=middle;whiteSpace=wrap;rounded=0;" parent="1" vertex="1">
                    <mxGeometry x="210" y="50" width="370" height="30" as="geometry"/>
                </mxCell>
                <mxCell id="lxoMp8u9pRbJdC7NHY2p-2" value="$$y_{i+1} = y_i + h*F(x_{i+1}, y_{i+1})$$" style="text;html=1;strokeColor=none;fillColor=none;align=center;verticalAlign=middle;whiteSpace=wrap;rounded=0;" parent="1" vertex="1">
                    <mxGeometry x="890" y="100" width="370" height="30" as="geometry"/>
                </mxCell>
                <mxCell id="lxoMp8u9pRbJdC7NHY2p-3" value="$$y_{i+1} = y_i + h/2*(F(x_i, y_i) + F(x_{i+1}, y_{i+1}))$$" style="text;html=1;strokeColor=none;fillColor=none;align=center;verticalAlign=middle;whiteSpace=wrap;rounded=0;" parent="1" vertex="1">
                    <mxGeometry x="340" y="810" width="480" height="30" as="geometry"/>
                </mxCell>
                <mxCell id="A-ZJELqBzQS3mIu_F6TI-1" value="Ptvp bậc cao&amp;nbsp;" style="text;html=1;strokeColor=none;fillColor=none;align=center;verticalAlign=middle;whiteSpace=wrap;rounded=0;" parent="1" vertex="1">
                    <mxGeometry x="910" y="970" width="280" height="30" as="geometry"/>
                </mxCell>
            </root>
        </mxGraphModel>
    </diagram>
</mxfile>